<svg width="80" height="93" viewBox="0 0 80 93" fill="none" xmlns="http://www.w3.org/2000/svg">
<g clip-path="url(#clip0_253_9)">
<g clip-path="url(#clip1_253_9)">
<path fill-rule="evenodd" clip-rule="evenodd" d="M64.3751 28.1384C64.3783 25.9656 63.5623 24.212 61.9047 22.82C57.3767 19.028 52.8599 15.2328 48.3463 11.4312C47.1762 10.4222 45.6801 9.8714 44.1351 9.88081C37.5943 9.82641 31.0583 9.74641 24.5175 9.69361C20.6951 9.66321 17.9831 12.3752 17.9799 16.2216C17.9703 24.2328 17.9767 32.2472 17.9767 40.2584C17.9767 48.2712 17.9703 56.2856 17.9799 64.2968C17.9831 67.2232 19.6167 69.58 22.2887 70.436C23.0119 70.668 23.8087 70.7544 24.5767 70.756C35.6455 70.7752 46.7159 70.7784 57.7895 70.7656C61.7415 70.7592 64.3655 68.1096 64.3687 64.164C64.3719 52.156 64.3623 40.148 64.3751 28.1384Z" fill="url(#paint0_linear_253_9)"/>
<path fill-rule="evenodd" clip-rule="evenodd" d="M46.8937 58.3362H43.4897V54.1425H48.8089V56.0137C48.8606 57.305 47.956 58.3362 46.8937 58.3362ZM31.148 55.951V54.0798H36.4672V58.2735H33.1124C31.9958 58.3362 31.148 57.305 31.148 55.951ZM33.0607 41.0474H36.413V45.1784H31.0963V43.4357C31.148 42.1444 32.001 41.0474 33.0658 41.0474H33.0607ZM43.4897 52.7885H48.8089V46.5324H43.4897V52.7885ZM37.5295 58.3362H42.4249V41.0474H37.5295V58.3362ZM31.1455 52.7885H36.4672V46.5324H31.148L31.1455 52.7885ZM48.8606 43.4357V45.1784H43.5414V41.0474H46.9454C47.956 41.0474 48.8606 42.1444 48.8606 43.4357ZM46.8937 39.6934H33.0607C31.3574 39.6934 29.9746 41.3702 29.9746 43.4357V55.951C29.9746 58.0134 31.3574 59.6934 33.0607 59.6934H46.8885C48.5944 59.6934 49.9746 58.0134 49.9746 55.951V43.4357C49.9746 41.3702 48.5918 39.6934 46.8911 39.6934H46.8937Z" fill="url(#paint1_linear_253_9)"/>
<path d="M28.1662 33.0664C28.2877 33.1011 28.4439 33.1271 28.6348 33.1445C28.8257 33.1532 29.0079 33.1575 29.1814 33.1575C29.5285 33.1575 29.8148 33.0881 30.0405 32.9493C30.2747 32.8018 30.3919 32.5762 30.3919 32.2725C30.3919 31.9861 30.2964 31.7822 30.1055 31.6607C29.9146 31.5392 29.624 31.4785 29.2335 31.4785H28.1662V33.0664ZM28.1662 29.8906H29.1163C29.4895 29.8906 29.7584 29.8212 29.9233 29.6823C30.0969 29.5435 30.1836 29.3396 30.1836 29.0706C30.1836 28.8363 30.0838 28.6498 29.8843 28.5109C29.6934 28.3721 29.4027 28.3027 29.0122 28.3027C28.8821 28.3027 28.7302 28.307 28.5567 28.3157C28.3918 28.3244 28.2616 28.3374 28.1662 28.3547V29.8906ZM29.0122 34.9016C28.8647 34.9016 28.6912 34.8973 28.4916 34.8886C28.292 34.8799 28.0838 34.8626 27.8668 34.8365C27.6586 34.8105 27.4503 34.7758 27.2421 34.7324C27.0338 34.6977 26.8429 34.6456 26.6694 34.5762C26.1922 34.394 25.9535 34.0773 25.9535 33.6261V27.5478C25.9535 27.3656 26.0013 27.2267 26.0967 27.1313C26.2008 27.0272 26.3397 26.9447 26.5132 26.884C26.8082 26.7799 27.177 26.7061 27.6195 26.6627C28.0621 26.6107 28.5176 26.5846 28.9862 26.5846C30.0969 26.5846 30.9515 26.7712 31.5503 27.1443C32.149 27.5174 32.4483 28.0944 32.4483 28.8754C32.4483 29.2658 32.3355 29.6042 32.1099 29.8906C31.8843 30.1683 31.5806 30.3722 31.1988 30.5023C31.6327 30.6238 31.9928 30.8451 32.2791 31.1661C32.5742 31.4872 32.7217 31.8907 32.7217 32.3766C32.7217 33.2356 32.4006 33.8734 31.7585 34.2899C31.1251 34.6977 30.2097 34.9016 29.0122 34.9016ZM36.2507 31.5566C35.8689 31.4264 35.5219 31.2963 35.2095 31.1661C34.8971 31.0273 34.6281 30.8624 34.4025 30.6715C34.1769 30.4806 33.999 30.255 33.8689 29.9947C33.7474 29.7257 33.6867 29.4003 33.6867 29.0185C33.6867 28.281 33.9687 27.691 34.5327 27.2484C35.1054 26.8059 35.9037 26.5846 36.9275 26.5846C37.3007 26.5846 37.6477 26.6107 37.9688 26.6627C38.2898 26.7148 38.5632 26.7972 38.7888 26.91C39.0231 27.0141 39.2053 27.153 39.3354 27.3265C39.4656 27.4914 39.5307 27.6866 39.5307 27.9122C39.5307 28.1378 39.4786 28.3331 39.3745 28.4979C39.2704 28.6541 39.1445 28.7886 38.997 28.9014C38.8061 28.7799 38.5502 28.6758 38.2291 28.589C37.9081 28.4936 37.5566 28.4459 37.1748 28.4459C36.7844 28.4459 36.498 28.5023 36.3158 28.6151C36.1336 28.7192 36.0425 28.8537 36.0425 29.0185C36.0425 29.1487 36.0989 29.2572 36.2117 29.3439C36.3245 29.422 36.4937 29.4958 36.7193 29.5652L37.4091 29.7865C38.2248 30.0468 38.8495 30.3808 39.2834 30.7887C39.7259 31.1878 39.9472 31.7345 39.9472 32.4286C39.9472 33.1662 39.6565 33.7649 39.0751 34.2248C38.4938 34.676 37.6391 34.9016 36.511 34.9016C36.1119 34.9016 35.7388 34.8669 35.3917 34.7975C35.0533 34.7367 34.7539 34.6456 34.4936 34.5242C34.242 34.394 34.0424 34.2378 33.8949 34.0556C33.7561 33.8647 33.6867 33.6478 33.6867 33.4048C33.6867 33.1532 33.7604 32.9406 33.9079 32.767C34.0554 32.5848 34.216 32.446 34.3895 32.3505C34.6325 32.5414 34.9275 32.7063 35.2746 32.8451C35.6303 32.984 36.0165 33.0534 36.433 33.0534C36.8581 33.0534 37.1575 32.9883 37.331 32.8582C37.5046 32.728 37.5913 32.5762 37.5913 32.4026C37.5913 32.2291 37.5219 32.0989 37.3831 32.0121C37.2443 31.9167 37.049 31.8256 36.7974 31.7388L36.2507 31.5566ZM48.3264 34.42C48.2049 34.5415 48.027 34.6326 47.7927 34.6934C47.5671 34.7628 47.2938 34.7975 46.9728 34.7975C46.6517 34.7975 46.348 34.7498 46.0617 34.6543C45.7753 34.5589 45.541 34.3289 45.3588 33.9645L44.0703 31.3353C43.9401 31.0663 43.823 30.8147 43.7189 30.5804C43.6147 30.3375 43.5019 30.0598 43.3804 29.7474L43.3024 29.7604C43.3371 30.229 43.3544 30.7062 43.3544 31.1922C43.3631 31.6781 43.3674 32.1553 43.3674 32.6239V34.6413C43.272 34.6673 43.1245 34.6934 42.9249 34.7194C42.734 34.7454 42.5431 34.7584 42.3522 34.7584C42.1613 34.7584 41.9921 34.7454 41.8446 34.7194C41.6971 34.6934 41.5756 34.6413 41.4802 34.5632C41.3847 34.4851 41.311 34.381 41.2589 34.2508C41.2068 34.112 41.1808 33.9341 41.1808 33.7172V27.2094C41.3023 27.0358 41.4888 26.9057 41.7405 26.8189C41.9921 26.7321 42.2611 26.6887 42.5474 26.6887C42.8685 26.6887 43.1722 26.7408 43.4585 26.8449C43.7536 26.9404 43.9878 27.166 44.1614 27.5218L45.4629 30.1509C45.5931 30.4199 45.7102 30.6759 45.8144 30.9188C45.9185 31.1531 46.0313 31.4264 46.1528 31.7388L46.2179 31.7258C46.1831 31.2572 46.1615 30.7887 46.1528 30.3201C46.1441 29.8515 46.1398 29.383 46.1398 28.9144V26.8059C46.2352 26.7799 46.3784 26.7538 46.5693 26.7278C46.7689 26.7018 46.9641 26.6887 47.155 26.6887C47.5368 26.6887 47.8275 26.7582 48.027 26.897C48.2266 27.0272 48.3264 27.3048 48.3264 27.73V34.42ZM51.2251 34.7324C50.852 34.7324 50.557 34.6239 50.34 34.407C50.1231 34.1901 50.0147 33.8951 50.0147 33.522V26.7929C50.1101 26.7755 50.262 26.7538 50.4702 26.7278C50.6785 26.6931 50.878 26.6757 51.0689 26.6757C51.2685 26.6757 51.442 26.6931 51.5895 26.7278C51.7457 26.7538 51.8759 26.8059 51.98 26.884C52.0841 26.9621 52.1622 27.0705 52.2143 27.2094C52.2664 27.3482 52.2924 27.5304 52.2924 27.756V32.8972H55.273C55.3337 32.9927 55.3901 33.1228 55.4422 33.2877C55.4942 33.4439 55.5203 33.6087 55.5203 33.7823C55.5203 34.1293 55.4465 34.3766 55.299 34.5242C55.1515 34.663 54.9563 34.7324 54.7133 34.7324H51.2251Z" fill="black"/>
</g>
</g>
<defs>
<linearGradient id="paint0_linear_253_9" x1="45.8647" y1="8.70321" x2="40.2247" y2="70.3272" gradientUnits="userSpaceOnUse">
<stop offset="0.01" stop-color="#FFD133"/>
<stop offset="1" stop-color="#FFA800"/>
</linearGradient>
<linearGradient id="paint1_linear_253_9" x1="34.4926" y1="38.1544" x2="48.9627" y2="58.8197" gradientUnits="userSpaceOnUse">
<stop/>
<stop offset="1"/>
</linearGradient>
<clipPath id="clip0_253_9">
<rect width="80" height="80" fill="white" transform="translate(0 0.150024)"/>
</clipPath>
<clipPath id="clip1_253_9">
<rect width="80" height="80" fill="white" transform="translate(0 0.150024)"/>
</clipPath>
</defs>
</svg>
