<svg width="25" height="24" viewBox="0 0 25 24" fill="none" xmlns="http://www.w3.org/2000/svg">
<path d="M8.33048 15.73C12.0705 19.48 15.4005 19.58 16.8105 19.41C17.2415 19.3555 17.6405 19.1542 17.9405 18.84L18.9405 17.84C19.1264 17.6543 19.274 17.4337 19.3746 17.1909C19.4753 16.9481 19.5271 16.6879 19.5271 16.425C19.5271 16.1622 19.4753 15.9019 19.3746 15.6592C19.274 15.4164 19.1264 15.1958 18.9405 15.01L18.2305 14.3C17.8558 13.9275 17.3489 13.7184 16.8205 13.7184C16.2921 13.7184 15.7852 13.9275 15.4105 14.3L14.7005 15.01C14.5607 15.1517 14.3817 15.2482 14.1865 15.2872C13.9914 15.3262 13.789 15.306 13.6055 15.229C13.4837 15.1782 13.3733 15.1038 13.2805 15.01L9.06048 10.79C8.96663 10.6971 8.89213 10.5866 8.84129 10.4647C8.79044 10.3428 8.76426 10.2121 8.76426 10.08C8.76426 9.94798 8.79044 9.81724 8.84129 9.69537C8.89213 9.5735 8.96663 9.46293 9.06048 9.37003L9.77048 8.66003C10.143 8.28531 10.3521 7.7784 10.3521 7.25003C10.3521 6.72166 10.143 6.21476 9.77048 5.84003L9.06048 5.13003C8.87474 4.94408 8.65416 4.79656 8.41136 4.69591C8.16857 4.59526 7.90831 4.54346 7.64548 4.54346C7.38265 4.54346 7.1224 4.59526 6.8796 4.69591C6.63681 4.79656 6.41623 4.94408 6.23048 5.13003L5.23048 6.13003C4.91627 6.43 4.71497 6.82905 4.66048 7.26003C4.48048 8.66003 4.58048 12 8.33048 15.73Z" fill="white"/>
</svg>
