<svg width="25" height="24" viewBox="0 0 25 24" fill="none" xmlns="http://www.w3.org/2000/svg">
<path d="M15.3406 4H9.34063C7.5803 4.01356 5.88971 4.68987 4.60573 5.89418C3.32175 7.09849 2.53868 8.74235 2.41254 10.4982C2.2864 12.2541 2.82646 13.993 3.92511 15.3685C5.02375 16.7439 6.60032 17.655 8.34063 17.92V20C8.34063 20.2786 8.4182 20.5516 8.56466 20.7886C8.71111 21.0256 8.92065 21.2171 9.16981 21.3416C9.41897 21.4662 9.6979 21.519 9.97534 21.4939C10.2528 21.4689 10.5178 21.3671 10.7406 21.2L15.0106 18H15.3406C17.1971 18 18.9776 17.2625 20.2904 15.9497C21.6031 14.637 22.3406 12.8565 22.3406 11C22.3406 9.14348 21.6031 7.36301 20.2904 6.05025C18.9776 4.7375 17.1971 4 15.3406 4ZM8.34063 12C8.07542 12 7.82106 11.8946 7.63353 11.7071C7.44599 11.5196 7.34063 11.2652 7.34063 11C7.34063 10.7348 7.44599 10.4804 7.63353 10.2929C7.82106 10.1054 8.07542 10 8.34063 10C8.60585 10 8.8602 10.1054 9.04774 10.2929C9.23528 10.4804 9.34063 10.7348 9.34063 11C9.34063 11.2652 9.23528 11.5196 9.04774 11.7071C8.8602 11.8946 8.60585 12 8.34063 12ZM12.3406 12C12.0754 12 11.8211 11.8946 11.6335 11.7071C11.446 11.5196 11.3406 11.2652 11.3406 11C11.3406 10.7348 11.446 10.4804 11.6335 10.2929C11.8211 10.1054 12.0754 10 12.3406 10C12.6058 10 12.8602 10.1054 13.0477 10.2929C13.2353 10.4804 13.3406 10.7348 13.3406 11C13.3406 11.2652 13.2353 11.5196 13.0477 11.7071C12.8602 11.8946 12.6058 12 12.3406 12ZM16.3406 12C16.0754 12 15.8211 11.8946 15.6335 11.7071C15.446 11.5196 15.3406 11.2652 15.3406 11C15.3406 10.7348 15.446 10.4804 15.6335 10.2929C15.8211 10.1054 16.0754 10 16.3406 10C16.6058 10 16.8602 10.1054 17.0477 10.2929C17.2353 10.4804 17.3406 10.7348 17.3406 11C17.3406 11.2652 17.2353 11.5196 17.0477 11.7071C16.8602 11.8946 16.6058 12 16.3406 12Z" fill="white"/>
</svg>
