<svg width="80" height="93" viewBox="0 0 80 93" fill="none" xmlns="http://www.w3.org/2000/svg">
<g clip-path="url(#clip0_253_52)">
<g clip-path="url(#clip1_253_52)">
<mask id="mask0_253_52" style="mask-type:luminance" maskUnits="userSpaceOnUse" x="8" y="3" width="56" height="73">
<path d="M8 3.18518H63.04V75.942H8V3.18518Z" fill="white"/>
</mask>
<g mask="url(#mask0_253_52)">
<path fill-rule="evenodd" clip-rule="evenodd" d="M63.0403 33.8252C63.0403 31.6812 62.2531 29.9484 60.6131 28.5612C56.1363 24.8108 51.6915 21.0588 47.2163 17.3068C46.0179 16.2988 44.6307 15.7948 43.0547 15.7628L23.6675 15.574C19.8851 15.542 17.2051 18.222 17.2051 22.0364V69.51C17.2051 72.4108 18.8131 74.742 21.4611 75.5628C22.1859 75.7836 22.9747 75.878 23.7299 75.878C34.6691 75.91 45.6083 75.91 56.5459 75.878C60.4563 75.878 63.0419 73.262 63.0419 69.3532L63.0403 33.8252Z" fill="url(#paint0_linear_253_52)"/>
<path d="M15.0304 8.60758C15.3062 8.60758 15.5708 8.49801 15.7658 8.30297C15.9608 8.10793 16.0704 7.84341 16.0704 7.56758C16.0704 7.29176 15.9608 7.02723 15.7658 6.83219C15.5708 6.63715 15.3062 6.52758 15.0304 6.52758C14.7546 6.52758 14.49 6.63715 14.295 6.83219C14.1 7.02723 13.9904 7.29176 13.9904 7.56758C13.9904 7.84341 14.1 8.10793 14.295 8.30297C14.49 8.49801 14.7546 8.60758 15.0304 8.60758ZM22.752 5.26518C23.0278 5.26518 23.2924 5.15561 23.4874 4.96057C23.6824 4.76553 23.792 4.50101 23.792 4.22518C23.792 3.94936 23.6824 3.68483 23.4874 3.48979C23.2924 3.29475 23.0278 3.18518 22.752 3.18518C22.4762 3.18518 22.2116 3.29475 22.0166 3.48979C21.8216 3.68483 21.712 3.94936 21.712 4.22518C21.712 4.50101 21.8216 4.76553 22.0166 4.96057C22.2116 5.15561 22.4762 5.26518 22.752 5.26518ZM9.04 13.966C9.31583 13.966 9.58035 13.8564 9.77539 13.6614C9.97043 13.4663 10.08 13.2018 10.08 12.926C10.08 12.6502 9.97043 12.3856 9.77539 12.1906C9.58035 11.9956 9.31583 11.886 9.04 11.886C8.76417 11.886 8.49965 11.9956 8.30461 12.1906C8.10957 12.3856 8 12.6502 8 12.926C8 13.2018 8.10957 13.4663 8.30461 13.6614C8.49965 13.8564 8.76417 13.966 9.04 13.966Z" fill="#2F3043"/>
<path fill-rule="evenodd" clip-rule="evenodd" d="M21.6801 12.1692L15.8145 8.79636L16.5073 15.2908L10.0449 13.7772L17.2641 22.3516C19.0609 18.4108 22.5601 16.2044 27.7617 15.7004L23.0961 5.48596L21.6785 12.1692H21.6801Z" fill="#2F3043"/>
<path d="M47.5935 50.1547C47.5935 50.1547 47.4687 54.0635 44.6943 56.2075C43.6223 57.0267 42.2031 57.5947 40.2175 57.5947C38.2319 57.5947 36.8127 57.0267 35.7407 56.2075C32.9679 54.0635 32.8415 50.1547 32.8415 50.1547H47.5935ZM33.0623 43.8811C34.1023 43.8811 34.9231 42.6203 34.9231 41.0443C34.9231 39.4683 34.0719 38.2075 33.0623 38.2075C32.0223 38.2075 31.2031 39.4683 31.2031 41.0443C31.2031 42.6203 32.0223 43.8811 33.0623 43.8811ZM46.8671 43.8811C47.9071 43.8811 48.7263 42.6203 48.7263 41.0443C48.7263 39.4683 47.8751 38.2075 46.8671 38.2075C45.8271 38.2075 45.0079 39.4683 45.0079 41.0443C45.0079 42.6203 45.8591 43.8811 46.8671 43.8811Z" fill="#292B3A"/>
<path opacity="0.3" d="M56.3271 46.5931C50.8423 47.2235 45.6711 47.6651 42.2679 47.0971L40.1239 44.1339L37.9159 47.1291C36.1831 47.3803 34.0407 47.3803 31.7079 47.2859C31.0759 47.2539 30.4151 47.2219 29.7527 47.1595C29.0599 47.1275 28.3655 47.0651 27.6727 47.0027C26.4423 46.9067 25.1495 46.7499 23.8887 46.6251C23.7322 44.6633 23.6377 42.697 23.6055 40.7291C23.5735 38.6171 23.6375 36.5371 23.8263 34.4891C25.9383 34.3611 28.0823 34.2347 30.1943 34.1723C33.7255 34.0155 37.2231 33.9515 40.7543 33.9515H42.9927C43.6551 33.9515 44.3479 33.9515 45.0087 33.9835C48.8567 34.0475 52.6711 34.2043 56.5159 34.4571C56.9255 38.3019 56.8311 42.3691 56.3271 46.5931Z" fill="#282B3C"/>
<path opacity="0.3" d="M40.7203 33.9515L27.6707 47.0027C26.4419 46.9067 25.1491 46.7499 23.8883 46.6235C23.7313 44.6622 23.6363 42.6964 23.6035 40.7291L30.1603 34.1723C33.6915 34.0139 37.1907 33.9515 40.7203 33.9515ZM44.9763 34.0155L31.7059 47.2859C31.0755 47.2539 30.4131 47.2219 29.7523 47.1595L42.9283 33.9835C43.6227 33.9835 44.2835 33.9835 44.9763 34.0155Z" fill="white"/>
<path d="M44.6938 56.2076C43.6218 57.0268 42.2026 57.5948 40.217 57.5948C38.2314 57.5948 36.8122 57.0268 35.7402 56.2076C36.7482 55.6092 38.3882 55.2316 40.217 55.2316C42.0458 55.2316 43.6842 55.6092 44.6938 56.2076Z" fill="#EE2737"/>
</g>
</g>
</g>
<defs>
<linearGradient id="paint0_linear_253_52" x1="21.5667" y1="19.51" x2="54.8179" y2="77.102" gradientUnits="userSpaceOnUse">
<stop stop-color="#FFD133"/>
<stop offset="1" stop-color="#FFA800"/>
</linearGradient>
<clipPath id="clip0_253_52">
<rect width="80" height="80" fill="white" transform="translate(0 0.150024)"/>
</clipPath>
<clipPath id="clip1_253_52">
<rect width="80" height="80" fill="white" transform="translate(0 0.150024)"/>
</clipPath>
</defs>
</svg>
