<svg width="28" height="27" viewBox="0 0 28 27" fill="none" xmlns="http://www.w3.org/2000/svg">
<path d="M15.8207 10.125H7.5257C6.59237 10.125 5.8457 10.7775 5.8457 11.5875V22.1625C5.8457 22.9725 6.60404 23.625 7.5257 23.625H15.8207C16.754 23.625 17.5007 22.9725 17.5007 22.1625V11.5875C17.5007 10.7775 16.7424 10.125 15.8207 10.125ZM11.6674 18.5625C10.699 18.5625 9.91737 17.8088 9.91737 16.875C9.91737 15.9413 10.699 15.1875 11.6674 15.1875C12.6357 15.1875 13.4174 15.9413 13.4174 16.875C13.4174 17.8088 12.6357 18.5625 11.6674 18.5625ZM17.384 2.22754C16.7424 2.22754 16.2174 2.73379 16.2174 3.35254C16.2174 3.97129 16.7424 4.47754 17.384 4.47754C20.639 4.47754 23.2874 7.03129 23.2874 10.17C23.2874 10.7888 23.8124 11.295 24.454 11.295C25.0957 11.295 25.6207 10.7888 25.6207 10.17C25.6207 5.78254 21.9224 2.22754 17.384 2.22754Z" fill="white" fill-opacity="0.67"/>
<path d="M16.9167 5.67004C16.275 5.67004 15.75 6.17629 15.75 6.79504C15.75 7.41379 16.275 7.92004 16.9167 7.92004C17.6902 7.92004 18.4321 8.21636 18.9791 8.74381C19.526 9.27125 19.8333 9.98662 19.8333 10.7325C19.8333 11.3513 20.3583 11.8575 21 11.8575C21.6417 11.8575 22.1667 11.3513 22.1667 10.7325C22.1667 7.94254 19.81 5.67004 16.9167 5.67004Z" fill="white" fill-opacity="0.64"/>
</svg>
