<svg width="13" height="21" viewBox="0 0 13 21" fill="none" xmlns="http://www.w3.org/2000/svg">
<path d="M9.75 0H3.25C2.38805 0 1.5614 0.331874 0.951903 0.922614C0.34241 1.51335 0 2.31457 0 3.15V17.85C0 18.6854 0.34241 19.4866 0.951903 20.0774C1.5614 20.6681 2.38805 21 3.25 21H9.75C10.612 21 11.4386 20.6681 12.0481 20.0774C12.6576 19.4866 13 18.6854 13 17.85V3.15C13 2.31457 12.6576 1.51335 12.0481 0.922614C11.4386 0.331874 10.612 0 9.75 0ZM6.5 18.9C6.14085 18.9 5.79642 18.7617 5.54246 18.5156C5.2885 18.2694 5.14583 17.9356 5.14583 17.5875C5.14583 17.2394 5.2885 16.9056 5.54246 16.6594C5.79642 16.4133 6.14085 16.275 6.5 16.275C6.85915 16.275 7.20359 16.4133 7.45754 16.6594C7.7115 16.9056 7.85417 17.2394 7.85417 17.5875C7.85417 17.9356 7.7115 18.2694 7.45754 18.5156C7.20359 18.7617 6.85915 18.9 6.5 18.9Z" fill="white"/>
</svg>
