<svg width="80" height="93" viewBox="0 0 80 93" fill="none" xmlns="http://www.w3.org/2000/svg">
<g clip-path="url(#clip0_253_35)">
<g clip-path="url(#clip1_253_35)">
<mask id="mask0_253_35" style="mask-type:luminance" maskUnits="userSpaceOnUse" x="12" y="11" width="56" height="60">
<path d="M12.2715 11.35H67.5627V70.23H12.2715V11.35Z" fill="white"/>
</mask>
<g mask="url(#mask0_253_35)">
<path fill-rule="evenodd" clip-rule="evenodd" d="M44.5138 40.6252C44.5138 39.11 43.9538 37.8924 42.8018 36.9372C39.6738 34.3036 36.5138 31.6684 33.3842 29.0332C32.5282 28.31 31.573 27.9804 30.453 27.9468C25.909 27.9148 21.365 27.8492 16.821 27.8156C14.1522 27.7836 12.2754 29.6924 12.2754 32.3596V65.7516C12.2754 67.7932 13.4274 69.4076 15.2722 69.9996C15.7666 70.1644 16.3266 70.23 16.853 70.23H39.9042C42.637 70.23 44.4802 68.3868 44.4802 65.654C44.4802 57.2892 44.4802 48.958 44.5138 40.6252Z" fill="url(#paint0_linear_253_35)"/>
<path fill-rule="evenodd" clip-rule="evenodd" d="M32.6591 64.0061H30.5519V61.8653H33.8447V62.8205C33.8767 63.4797 33.3167 64.0061 32.6591 64.0061ZM22.9119 62.7885V61.8333H26.2047V63.9741H24.1279C23.4367 64.0061 22.9119 63.4797 22.9119 62.7885ZM24.0959 55.1805H26.1711V57.2893H22.8799V56.3997C22.9119 55.7405 23.4399 55.1805 24.0991 55.1805H24.0959ZM30.5519 61.1741H33.8447V57.9805H30.5519V61.1741ZM26.8623 64.0061H29.8927V55.1805H26.8623V64.0061ZM22.9103 61.1741H26.2047V57.9805H22.9119L22.9103 61.1741ZM33.8767 56.3997V57.2893H30.5839V55.1805H32.6911C33.3167 55.1805 33.8767 55.7405 33.8767 56.3997ZM32.6591 54.4893H24.0959C23.0415 54.4893 22.1855 55.3453 22.1855 56.3997V62.7885C22.1855 63.8413 23.0415 64.6989 24.0959 64.6989H32.6559C33.7119 64.6989 34.5663 63.8413 34.5663 62.7885V56.3997C34.5663 55.3453 33.7103 54.4893 32.6575 54.4893H32.6591Z" fill="url(#paint1_linear_253_35)"/>
<path fill-rule="evenodd" clip-rule="evenodd" d="M67.5649 24.1612C67.5649 22.646 67.0049 21.4268 65.8529 20.4716C62.7249 17.838 59.5649 15.2028 56.4353 12.5676C55.5793 11.8444 54.6241 11.5148 53.5041 11.4828C48.9601 11.4492 44.4161 11.3836 39.8721 11.35C37.2033 11.318 35.3281 13.2268 35.3281 15.894V49.286C35.3281 51.3276 36.4801 52.942 38.3233 53.534C38.8177 53.6988 39.3777 53.7644 39.9041 53.7644H62.9553C65.6881 53.7644 67.5313 51.9212 67.5313 49.1884C67.5313 40.8236 67.5313 32.4924 67.5649 24.1596V24.1612Z" fill="url(#paint2_linear_253_35)"/>
<path fill-rule="evenodd" clip-rule="evenodd" d="M55.7103 47.542H53.6031V45.4012H56.8959V46.3548C56.9279 47.014 56.3679 47.5404 55.7103 47.5404V47.542ZM45.9631 46.3228V45.3676H49.2559V47.51H47.1807C46.4895 47.542 45.9631 47.014 45.9631 46.3228ZM47.1471 38.7164H49.2223V40.8236H45.9295V39.934C45.9615 39.2748 46.4895 38.7164 47.1487 38.7164H47.1471ZM53.6031 44.7084H56.8959V41.5148H53.6031V44.7084ZM49.9135 47.5404H52.9439V38.7164H49.9135V47.5404ZM45.9615 44.7084H49.2559V41.5148H45.9631L45.9615 44.7084ZM56.9279 39.934V40.8236H53.6351V38.7164H55.7423C56.3695 38.7164 56.9279 39.2764 56.9279 39.934ZM55.7103 38.0236H47.1487C46.0943 38.0236 45.2383 38.8796 45.2383 39.934V46.3228C45.2383 47.3772 46.0943 48.2332 47.1487 48.2332H55.7087C56.7647 48.2332 57.6207 47.3772 57.6207 46.3228V39.934C57.6207 38.8796 56.7647 38.0236 55.7103 38.0236Z" fill="url(#paint3_linear_253_35)"/>
<path fill-rule="evenodd" clip-rule="evenodd" d="M57.9804 32.0316C57.9804 32.854 57.2892 33.5788 56.4652 33.5788C55.6428 33.5788 54.918 32.8876 54.918 32.0636C54.9234 31.655 55.0881 31.2646 55.3771 30.9756C55.6661 30.6866 56.0565 30.5218 56.4652 30.5164C57.2892 30.4844 57.9804 31.1756 57.9804 32.0316Z" fill="#FCC402"/>
</g>
<path d="M42.518 28.4434C42.6113 28.47 42.7313 28.49 42.878 28.5034C43.0246 28.51 43.1646 28.5134 43.298 28.5134C43.5646 28.5134 43.7846 28.46 43.958 28.3534C44.138 28.24 44.228 28.0667 44.228 27.8334C44.228 27.6134 44.1546 27.4567 44.008 27.3634C43.8613 27.27 43.638 27.2234 43.338 27.2234H42.518V28.4434ZM42.518 26.0034H43.248C43.5346 26.0034 43.7413 25.95 43.868 25.8434C44.0013 25.7367 44.068 25.58 44.068 25.3734C44.068 25.1934 43.9913 25.05 43.838 24.9434C43.6913 24.8367 43.468 24.7834 43.168 24.7834C43.068 24.7834 42.9513 24.7867 42.818 24.7934C42.6913 24.8 42.5913 24.81 42.518 24.8234V26.0034ZM43.168 29.8534C43.0546 29.8534 42.9213 29.85 42.768 29.8434C42.6146 29.8367 42.4546 29.8234 42.288 29.8034C42.128 29.7834 41.968 29.7567 41.808 29.7234C41.648 29.6967 41.5013 29.6567 41.368 29.6034C41.0013 29.4634 40.818 29.22 40.818 28.8734V24.2034C40.818 24.0634 40.8546 23.9567 40.928 23.8834C41.008 23.8034 41.1146 23.74 41.248 23.6934C41.4746 23.6134 41.758 23.5567 42.098 23.5234C42.438 23.4834 42.788 23.4634 43.148 23.4634C44.0013 23.4634 44.658 23.6067 45.118 23.8934C45.578 24.18 45.808 24.6234 45.808 25.2234C45.808 25.5234 45.7213 25.7834 45.548 26.0034C45.3746 26.2167 45.1413 26.3734 44.848 26.4734C45.1813 26.5667 45.458 26.7367 45.678 26.9834C45.9046 27.23 46.018 27.54 46.018 27.9134C46.018 28.5734 45.7713 29.0634 45.278 29.3834C44.7913 29.6967 44.088 29.8534 43.168 29.8534ZM48.7294 27.2834C48.436 27.1834 48.1694 27.0834 47.9294 26.9834C47.6894 26.8767 47.4827 26.75 47.3094 26.6034C47.136 26.4567 46.9994 26.2834 46.8994 26.0834C46.806 25.8767 46.7594 25.6267 46.7594 25.3334C46.7594 24.7667 46.976 24.3134 47.4094 23.9734C47.8494 23.6334 48.4627 23.4634 49.2494 23.4634C49.536 23.4634 49.8027 23.4834 50.0494 23.5234C50.296 23.5634 50.506 23.6267 50.6794 23.7134C50.8594 23.7934 50.9994 23.9 51.0994 24.0334C51.1994 24.16 51.2494 24.31 51.2494 24.4834C51.2494 24.6567 51.2094 24.8067 51.1294 24.9334C51.0494 25.0534 50.9527 25.1567 50.8394 25.2434C50.6927 25.15 50.496 25.07 50.2494 25.0034C50.0027 24.93 49.7327 24.8934 49.4394 24.8934C49.1394 24.8934 48.9194 24.9367 48.7794 25.0234C48.6394 25.1034 48.5694 25.2067 48.5694 25.3334C48.5694 25.4334 48.6127 25.5167 48.6994 25.5834C48.786 25.6434 48.916 25.7 49.0894 25.7534L49.6194 25.9234C50.246 26.1234 50.726 26.38 51.0594 26.6934C51.3994 27 51.5694 27.42 51.5694 27.9534C51.5694 28.52 51.346 28.98 50.8994 29.3334C50.4527 29.68 49.796 29.8534 48.9294 29.8534C48.6227 29.8534 48.336 29.8267 48.0694 29.7734C47.8094 29.7267 47.5794 29.6567 47.3794 29.5634C47.186 29.4634 47.0327 29.3434 46.9194 29.2034C46.8127 29.0567 46.7594 28.89 46.7594 28.7034C46.7594 28.51 46.816 28.3467 46.9294 28.2134C47.0427 28.0734 47.166 27.9667 47.2994 27.8934C47.486 28.04 47.7127 28.1667 47.9794 28.2734C48.2527 28.38 48.5494 28.4334 48.8694 28.4334C49.196 28.4334 49.426 28.3834 49.5594 28.2834C49.6927 28.1834 49.7594 28.0667 49.7594 27.9334C49.7594 27.8 49.706 27.7 49.5994 27.6334C49.4927 27.56 49.3427 27.49 49.1494 27.4234L48.7294 27.2834ZM58.0072 29.4834C57.9139 29.5767 57.7772 29.6467 57.5972 29.6934C57.4239 29.7467 57.2139 29.7734 56.9672 29.7734C56.7205 29.7734 56.4872 29.7367 56.2672 29.6634C56.0472 29.59 55.8672 29.4134 55.7272 29.1334L54.7372 27.1134C54.6372 26.9067 54.5472 26.7134 54.4672 26.5334C54.3872 26.3467 54.3005 26.1334 54.2072 25.8934L54.1472 25.9034C54.1739 26.2634 54.1872 26.63 54.1872 27.0034C54.1939 27.3767 54.1972 27.7434 54.1972 28.1034V29.6534C54.1239 29.6734 54.0105 29.6934 53.8572 29.7134C53.7105 29.7334 53.5639 29.7434 53.4172 29.7434C53.2705 29.7434 53.1405 29.7334 53.0272 29.7134C52.9139 29.6934 52.8205 29.6534 52.7472 29.5934C52.6739 29.5334 52.6172 29.4534 52.5772 29.3534C52.5372 29.2467 52.5172 29.11 52.5172 28.9434V23.9434C52.6105 23.81 52.7539 23.71 52.9472 23.6434C53.1405 23.5767 53.3472 23.5434 53.5672 23.5434C53.8139 23.5434 54.0472 23.5834 54.2672 23.6634C54.4939 23.7367 54.6739 23.91 54.8072 24.1834L55.8072 26.2034C55.9072 26.41 55.9972 26.6067 56.0772 26.7934C56.1572 26.9734 56.2439 27.1834 56.3372 27.4234L56.3872 27.4134C56.3605 27.0534 56.3439 26.6934 56.3372 26.3334C56.3305 25.9734 56.3272 25.6134 56.3272 25.2534V23.6334C56.4005 23.6134 56.5105 23.5934 56.6572 23.5734C56.8105 23.5534 56.9605 23.5434 57.1072 23.5434C57.4005 23.5434 57.6239 23.5967 57.7772 23.7034C57.9305 23.8034 58.0072 24.0167 58.0072 24.3434V29.4834ZM60.2343 29.7234C59.9476 29.7234 59.721 29.64 59.5543 29.4734C59.3876 29.3067 59.3043 29.08 59.3043 28.7934V23.6234C59.3776 23.61 59.4943 23.5934 59.6543 23.5734C59.8143 23.5467 59.9676 23.5334 60.1143 23.5334C60.2676 23.5334 60.401 23.5467 60.5143 23.5734C60.6343 23.5934 60.7343 23.6334 60.8143 23.6934C60.8943 23.7534 60.9543 23.8367 60.9943 23.9434C61.0343 24.05 61.0543 24.19 61.0543 24.3634V28.3134H63.3443C63.391 28.3867 63.4343 28.4867 63.4743 28.6134C63.5143 28.7334 63.5343 28.86 63.5343 28.9934C63.5343 29.26 63.4776 29.45 63.3643 29.5634C63.251 29.67 63.101 29.7234 62.9143 29.7234H60.2343Z" fill="white"/>
</g>
</g>
<defs>
<linearGradient id="paint0_linear_253_35" x1="14.1794" y1="28.5516" x2="39.0114" y2="71.5628" gradientUnits="userSpaceOnUse">
<stop stop-color="#2A3B63"/>
<stop offset="1" stop-color="#161F33"/>
</linearGradient>
<linearGradient id="paint1_linear_253_35" x1="24.9823" y1="53.7037" x2="31.7903" y2="65.4941" gradientUnits="userSpaceOnUse">
<stop stop-color="#F4F8FE"/>
<stop offset="1" stop-color="#D5E5F9"/>
</linearGradient>
<linearGradient id="paint2_linear_253_35" x1="37.2305" y1="12.086" x2="62.0625" y2="55.0972" gradientUnits="userSpaceOnUse">
<stop stop-color="#F1525F"/>
<stop offset="1" stop-color="#EE2737"/>
</linearGradient>
<linearGradient id="paint3_linear_253_35" x1="46.3567" y1="38.0524" x2="56.5183" y2="48.214" gradientUnits="userSpaceOnUse">
<stop stop-color="#FFD133"/>
<stop offset="1" stop-color="#FFA800"/>
</linearGradient>
<clipPath id="clip0_253_35">
<rect width="80" height="80" fill="white" transform="translate(0 0.150024)"/>
</clipPath>
<clipPath id="clip1_253_35">
<rect width="80" height="80" fill="white" transform="translate(0 0.150024)"/>
</clipPath>
</defs>
</svg>
