<svg width="80" height="93" viewBox="0 0 80 93" fill="none" xmlns="http://www.w3.org/2000/svg">
<g clip-path="url(#clip0_253_20)">
<g clip-path="url(#clip1_253_20)">
<path fill-rule="evenodd" clip-rule="evenodd" d="M48.3781 44.31C49.1925 44.31 50.0069 44.318 50.8213 44.3052C51.1701 44.2988 51.3269 44.422 51.3253 44.7868C51.317 46.3964 51.317 48.006 51.3253 49.6156C51.3253 49.958 51.2133 50.1196 50.8421 50.1164C49.233 50.1046 47.6239 50.1046 46.0149 50.1164C45.6661 50.1164 45.5125 50.006 45.5141 49.6364C45.5253 48.0284 45.5285 46.4188 45.5141 44.8092C45.5093 44.4028 45.6869 44.2972 46.0533 44.3052C46.8277 44.3196 47.6021 44.3084 48.3781 44.31ZM45.5189 56.1868C45.5189 55.2924 45.5317 54.398 45.5141 53.5036C45.5077 53.1516 45.6213 53.0076 45.9893 53.0076C47.6181 53.022 49.2469 53.0204 50.8757 53.0108C51.2133 53.0076 51.3333 53.1452 51.3269 53.4716C51.3109 54.3836 51.3493 55.3004 51.2965 56.2124C51.2165 57.6524 50.1925 58.9004 48.7749 59.1596C47.8885 59.3212 46.9589 59.2524 46.0501 59.31C45.6181 59.3372 45.5045 59.15 45.5141 58.75C45.5333 57.8956 45.5189 57.0412 45.5189 56.1868ZM30.2741 50.1116C29.4197 50.1116 28.5669 50.0988 27.7141 50.118C27.3189 50.126 27.1333 50.014 27.1381 49.5836C27.1541 47.9948 27.1509 46.406 27.1381 44.8156C27.1349 44.4188 27.3061 44.3036 27.6773 44.3036C29.4245 44.3148 31.1717 44.3148 32.9189 44.3036C33.3077 44.3036 33.4389 44.462 33.4373 44.8396C33.4245 46.4092 33.4197 47.9788 33.4405 49.5484C33.4453 50.0076 33.2581 50.1292 32.8357 50.118C31.9829 50.0972 31.1285 50.1116 30.2757 50.1116H30.2741ZM30.2837 41.3916C29.4101 41.3916 28.5349 41.3804 27.6597 41.3964C27.2757 41.4028 27.1285 41.2572 27.1381 40.8684C27.1573 40.0556 27.1285 39.2396 27.1509 38.4252C27.1989 36.5772 28.5429 35.2028 30.3973 35.118C31.2293 35.0796 32.0661 35.118 32.8997 35.1036C33.2725 35.0988 33.4389 35.2316 33.4357 35.6252C33.4232 37.3745 33.4237 39.1239 33.4373 40.8732C33.4405 41.2668 33.2821 41.4012 32.9077 41.3948C32.0325 41.382 31.1589 41.3916 30.2837 41.3916ZM30.2677 53.0156C31.1637 53.0156 32.0565 53.0236 32.9493 53.0108C33.3061 53.006 33.4389 53.1452 33.4357 53.5036C33.4245 55.2716 33.4261 57.0396 33.4357 58.806C33.4357 59.1532 33.3237 59.3164 32.9557 59.3084C32.0805 59.2924 31.2053 59.3372 30.3333 59.2892C29.4898 59.2513 28.6921 58.8945 28.1017 58.2909C27.5112 57.6874 27.1719 56.8821 27.1525 56.038C27.1237 55.206 27.1637 54.3692 27.1365 53.5356C27.1205 53.094 27.3189 52.9996 27.7077 53.0076C28.5605 53.0268 29.4149 53.014 30.2677 53.0156ZM36.3285 47.2076V35.8044C36.3285 35.43 36.2949 35.0972 36.8533 35.1004C40.5941 35.1164 44.3333 35.0764 48.0725 35.126C49.9317 35.15 51.2565 36.5692 51.3141 38.4348C51.3381 39.2108 51.2949 39.9868 51.3301 40.7628C51.3557 41.2732 51.1541 41.406 50.6741 41.4012C48.6453 41.3804 46.6149 41.39 44.5861 41.3916C43.0725 41.3932 42.6229 41.8396 42.6229 43.3372V58.5004C42.6229 59.3036 42.6213 59.3052 41.7973 59.3052C40.2261 59.3052 38.6533 59.2764 37.0837 59.3212C36.4725 59.3372 36.3125 59.1516 36.3157 58.55C36.3429 54.7692 36.3301 50.9884 36.3301 47.206L36.3285 47.2076ZM16.0021 40.3564C16.0021 48.3788 15.9973 56.4028 16.0053 64.4252C16.0085 67.3564 17.6437 69.7148 20.3205 70.5724C21.0453 70.8044 21.8437 70.8924 22.6085 70.8924C33.6949 70.9132 44.7797 70.9164 55.8661 70.902C59.8261 70.8972 62.4533 68.2412 62.4549 64.294C62.4581 52.2684 62.4485 40.2444 62.4613 28.2204C62.4645 26.0412 61.6485 24.2876 59.9861 22.8956C55.4581 19.0988 50.9333 15.2956 46.4101 11.4876C45.2379 10.4787 43.7406 9.92748 42.1941 9.93558C35.6469 9.88278 29.0997 9.80118 22.5525 9.74998C18.7253 9.72118 16.0085 12.4348 16.0053 16.286C15.9957 24.31 16.0021 32.334 16.0021 40.3564Z" fill="url(#paint0_linear_253_20)"/>
<path fill-rule="evenodd" clip-rule="evenodd" d="M36.3289 47.206C36.3289 50.9884 36.3417 54.7692 36.3145 58.55C36.3113 59.1516 36.4713 59.3372 37.0825 59.3196C38.6521 59.278 40.2249 59.3068 41.7961 59.3052C42.6201 59.3052 42.6201 59.3052 42.6217 58.5004V43.3372C42.6217 41.838 43.0697 41.3932 44.5849 41.3932C46.6137 41.3916 48.6441 41.3804 50.6729 41.4012C51.1529 41.406 51.3545 41.2732 51.3305 40.7612C51.2937 39.9884 51.3369 39.2092 51.3129 38.4348C51.2569 36.5692 49.9305 35.1516 48.0729 35.126C44.3337 35.078 40.5929 35.1164 36.8521 35.1004C36.2921 35.0972 36.3257 35.43 36.3257 35.8044C36.3289 39.606 36.3289 43.4044 36.3289 47.206Z" fill="url(#paint1_linear_253_20)"/>
<path fill-rule="evenodd" clip-rule="evenodd" d="M30.2679 53.0141C29.4135 53.0141 28.5591 53.0269 27.7063 53.0077C27.3175 52.9997 27.1191 53.0941 27.1335 53.5357C27.1623 54.3693 27.1223 55.2045 27.1511 56.0381C27.1706 56.8825 27.5101 57.6879 28.1009 58.2915C28.6917 58.8951 29.4898 59.2518 30.3335 59.2893C31.2039 59.3373 32.0791 59.2925 32.9527 59.3085C33.3207 59.3165 33.4359 59.1533 33.4327 58.8061C33.4247 57.0397 33.4231 55.2701 33.4343 53.5037C33.4375 53.1453 33.3047 53.0061 32.9479 53.0109C32.0551 53.0237 31.1607 53.0157 30.2679 53.0141Z" fill="url(#paint2_linear_253_20)"/>
<path fill-rule="evenodd" clip-rule="evenodd" d="M30.2828 41.3916C31.158 41.3916 32.0316 41.382 32.9068 41.3948C33.2812 41.3996 33.4396 41.2668 33.4364 40.8732C33.4234 39.1239 33.4234 37.3745 33.4364 35.6252C33.438 35.23 33.2716 35.0972 32.9004 35.1036C32.0652 35.1164 31.2284 35.0796 30.3964 35.1196C28.5404 35.2028 27.198 36.5772 27.1484 38.4252C27.1276 39.2396 27.1564 40.0556 27.1372 40.87C27.1276 41.2572 27.2748 41.4028 27.6604 41.3964C28.534 41.3804 29.4076 41.3916 30.2828 41.3916Z" fill="url(#paint3_linear_253_20)"/>
<path fill-rule="evenodd" clip-rule="evenodd" d="M30.2728 50.1116C31.1272 50.1116 31.9816 50.0956 32.836 50.118C33.2568 50.1292 33.444 50.006 33.4392 49.5484C33.4184 47.9804 33.4232 46.4092 33.436 44.8412C33.4392 44.462 33.308 44.3036 32.9192 44.3052C31.1704 44.3148 29.4232 44.3148 27.676 44.3052C27.3048 44.302 27.1336 44.4172 27.1368 44.8172C27.1512 46.406 27.1528 47.9948 27.1368 49.5852C27.132 50.0156 27.3176 50.126 27.7128 50.118C28.5656 50.0988 29.4184 50.1116 30.2728 50.1116Z" fill="url(#paint4_linear_253_20)"/>
<path fill-rule="evenodd" clip-rule="evenodd" d="M45.5201 56.1869C45.5201 57.0413 45.5329 57.8957 45.5121 58.7501C45.5041 59.1501 45.6193 59.3373 46.0497 59.3101C46.9585 59.2525 47.8881 59.3213 48.7761 59.1597C50.1921 58.9021 51.2161 57.6541 51.2977 56.2125C51.3489 55.3005 51.3105 54.3853 51.3265 53.4717C51.3329 53.1453 51.2145 53.0077 50.8753 53.0109C49.2465 53.022 47.6177 53.022 45.9889 53.0109C45.6209 53.0061 45.5073 53.1517 45.5137 53.5053C45.5297 54.3981 45.5185 55.2925 45.5185 56.1869H45.5201Z" fill="url(#paint5_linear_253_20)"/>
<path fill-rule="evenodd" clip-rule="evenodd" d="M48.3774 44.31C47.6014 44.31 46.827 44.3196 46.0526 44.3052C45.6862 44.2972 45.5086 44.4028 45.5118 44.8092C45.5278 46.4188 45.5246 48.0284 45.5134 49.638C45.5118 50.006 45.6654 50.118 46.0142 50.1164C47.6238 50.1052 49.2334 50.1036 50.8414 50.1164C51.2126 50.1196 51.3262 49.958 51.3246 49.6156C51.3162 48.006 51.3162 46.3964 51.3246 44.7868C51.3262 44.422 51.1694 44.2988 50.8206 44.3052C50.0062 44.318 49.1918 44.31 48.3774 44.31Z" fill="url(#paint6_linear_253_20)"/>
</g>
</g>
<defs>
<linearGradient id="paint0_linear_253_20" x1="39.2309" y1="9.74998" x2="39.2309" y2="70.9116" gradientUnits="userSpaceOnUse">
<stop stop-color="#2A3B63"/>
<stop offset="1" stop-color="#161F33"/>
</linearGradient>
<linearGradient id="paint1_linear_253_20" x1="43.8233" y1="35.1004" x2="43.8233" y2="59.3212" gradientUnits="userSpaceOnUse">
<stop stop-color="#FFD133"/>
<stop offset="1" stop-color="#FFA800"/>
</linearGradient>
<linearGradient id="paint2_linear_253_20" x1="30.2839" y1="53.0077" x2="30.2839" y2="59.3117" gradientUnits="userSpaceOnUse">
<stop stop-color="#FFD133"/>
<stop offset="1" stop-color="#FFA800"/>
</linearGradient>
<linearGradient id="paint3_linear_253_20" x1="30.286" y1="35.1004" x2="30.286" y2="41.3964" gradientUnits="userSpaceOnUse">
<stop stop-color="#FFD133"/>
<stop offset="1" stop-color="#FFA800"/>
</linearGradient>
<linearGradient id="paint4_linear_253_20" x1="30.2872" y1="44.3052" x2="30.2872" y2="50.118" gradientUnits="userSpaceOnUse">
<stop stop-color="#FFD133"/>
<stop offset="1" stop-color="#FFA800"/>
</linearGradient>
<linearGradient id="paint5_linear_253_20" x1="48.4193" y1="53.0093" x2="48.4193" y2="59.3133" gradientUnits="userSpaceOnUse">
<stop stop-color="#FFD133"/>
<stop offset="1" stop-color="#FFA800"/>
</linearGradient>
<linearGradient id="paint6_linear_253_20" x1="48.419" y1="44.3036" x2="48.419" y2="50.1164" gradientUnits="userSpaceOnUse">
<stop stop-color="#FFD133"/>
<stop offset="1" stop-color="#FFA800"/>
</linearGradient>
<clipPath id="clip0_253_20">
<rect width="80" height="80" fill="white" transform="translate(0 0.150024)"/>
</clipPath>
<clipPath id="clip1_253_20">
<rect width="80" height="80" fill="white" transform="translate(0 0.150024)"/>
</clipPath>
</defs>
</svg>
