<svg width="20" height="20" viewBox="0 0 20 20" fill="none" xmlns="http://www.w3.org/2000/svg">
<mask id="mask0_239_6" style="mask-type:luminance" maskUnits="userSpaceOnUse" x="4" y="2" width="13" height="16">
<path d="M4.16602 2.49585H17V18H4.16602V2.49585Z" fill="white"/>
</mask>
<g mask="url(#mask0_239_6)">
<path fill-rule="evenodd" clip-rule="evenodd" d="M16.5249 5.10137L13.7073 2.82157C13.4537 2.61291 13.128 2.49785 12.7909 2.49779L6.3831 2.49231C5.82692 2.46702 5.28226 2.64708 4.86546 2.99403C4.66099 3.16417 4.49444 3.3707 4.37542 3.60167C4.2564 3.83265 4.18727 4.08349 4.17203 4.33972L4.1606 16.1453C4.18943 16.6612 4.43739 17.1447 4.85141 17.4921C5.26754 17.8398 5.81185 18.0208 6.36808 17.9964L14.723 18.0036C15.3234 18.0057 15.9007 17.7863 16.3306 17.3926C16.5418 17.1994 16.7095 16.9683 16.8236 16.713C16.9378 16.4577 16.996 16.1834 16.9948 15.9064L17.0043 6.07768C17.0039 5.892 16.9608 5.7086 16.878 5.53997C16.7953 5.37135 16.6749 5.22232 16.5249 5.10137ZM15.1651 12.0771L14.5711 12.0766C14.5204 12.3177 14.4175 12.5467 14.267 12.749C14.1159 12.9523 13.922 13.1242 13.6972 13.2541C13.3899 13.433 13.0442 13.5464 12.6839 13.5849L14.6465 15.5487C14.7087 15.6032 14.7515 15.6744 14.769 15.7526C14.7865 15.8308 14.7778 15.9121 14.7442 15.9855C14.7213 16.0344 14.6879 16.0784 14.646 16.1146C14.5856 16.1716 14.5084 16.2102 14.4245 16.2257C14.3405 16.2411 14.2535 16.2326 14.1747 16.2012C14.1223 16.1809 14.0746 16.151 14.0345 16.1132L11.4968 13.5753C11.4243 13.5107 11.3756 13.4262 11.3577 13.334C11.3273 13.2417 11.3274 13.1428 11.358 13.0506C11.4052 12.9627 11.482 12.892 11.5763 12.8492C11.6666 12.8023 11.7699 12.7826 11.8725 12.7926C12.3257 12.861 12.7902 12.7847 13.1918 12.5758C13.3936 12.4614 13.546 12.2841 13.6195 12.0758L11.7164 12.0741C11.6008 12.0741 11.4899 12.0313 11.4076 11.955C11.3673 11.9177 11.3353 11.8732 11.3135 11.8242C11.2917 11.7751 11.2805 11.7225 11.2805 11.6694C11.2806 11.6162 11.2919 11.5636 11.3138 11.5146C11.3357 11.4656 11.3678 11.4212 11.4082 11.3839C11.4907 11.3081 11.6017 11.2658 11.7172 11.2662L13.6991 11.2679C13.6538 11.0961 13.5418 10.9464 13.3851 10.8481C13.1194 10.7101 12.817 10.6427 12.5126 10.6536L11.6738 10.6529C11.5585 10.6526 11.448 10.6098 11.3659 10.5337C11.3257 10.4965 11.2939 10.452 11.2721 10.4031C11.2504 10.3541 11.2392 10.3016 11.2393 10.2485C11.2394 10.1955 11.2506 10.143 11.2724 10.0941C11.2943 10.0451 11.3262 10.0008 11.3665 9.96354C11.4489 9.8874 11.5599 9.8448 11.6755 9.84494L15.1673 9.84793C15.282 9.85001 15.3915 9.89325 15.4733 9.96878C15.5548 10.0446 15.6015 10.1455 15.6032 10.2523C15.6031 10.3591 15.5572 10.4624 15.4746 10.5373C15.3924 10.6132 15.2818 10.6558 15.1665 10.6559L14.3809 10.6552C14.4925 10.8465 14.5693 11.0542 14.6067 11.2687L15.1659 11.2691C15.2814 11.269 15.3923 11.3114 15.4747 11.3874C15.515 11.4247 15.547 11.4692 15.5688 11.5182C15.5906 11.5673 15.6018 11.6199 15.6018 11.6731C15.6017 11.7262 15.5904 11.7788 15.5685 11.8278C15.5466 11.8768 15.5145 11.9212 15.4741 11.9585C15.3917 12.0346 15.2807 12.0772 15.1651 12.0771Z" fill="white"/>
</g>
</svg>
