<svg width="25" height="24" viewBox="0 0 25 24" fill="none" xmlns="http://www.w3.org/2000/svg">
<path d="M21.2502 5.88L18.7002 3.53C18.3324 3.19065 17.8507 3.00154 17.3502 3H6.91025C6.40978 3.00154 5.92808 3.19065 5.56025 3.53L3.01025 5.88C2.48033 6.4487 2.19183 7.20089 2.20555 7.97809C2.21926 8.75529 2.53411 9.49683 3.08376 10.0465C3.63341 10.5961 4.37495 10.911 5.15216 10.9247C5.92936 10.9384 6.68155 10.6499 7.25025 10.12C7.32625 10.038 7.39625 9.951 7.46025 9.86C7.74144 10.2086 8.09711 10.4898 8.50116 10.683C8.90521 10.8762 9.34738 10.9764 9.79525 10.9764C10.2431 10.9764 10.6853 10.8762 11.0893 10.683C11.4934 10.4898 11.8491 10.2086 12.1302 9.86C12.4114 10.2086 12.7671 10.4898 13.1712 10.683C13.5752 10.8762 14.0174 10.9764 14.4652 10.9764C14.9131 10.9764 15.3553 10.8762 15.7593 10.683C16.1634 10.4898 16.5191 10.2086 16.8002 9.86C16.8652 9.951 16.9352 10.038 17.0102 10.12C17.2849 10.4147 17.6161 10.6512 17.9841 10.8151C18.3521 10.9791 18.7493 11.0673 19.1522 11.0744C19.555 11.0815 19.9551 11.0074 20.3286 10.8565C20.7022 10.7056 21.0415 10.481 21.3264 10.1962C21.6113 9.91128 21.8359 9.57194 21.9867 9.19839C22.1376 8.82484 22.2117 8.42472 22.2046 8.02191C22.1975 7.6191 22.1093 7.22185 21.9454 6.85385C21.7814 6.48585 21.545 6.15465 21.2502 5.88ZM7.47025 12.42C6.80543 12.7713 6.06994 12.9681 5.31852 12.9958C4.56711 13.0235 3.81913 12.8814 3.13025 12.58V18C3.13025 18.7956 3.44632 19.5587 4.00893 20.1213C4.57153 20.6839 5.3346 21 6.13025 21H11.1302V12.81C9.90583 13.1595 8.59352 13.0197 7.47025 12.42ZM16.7902 12.42C15.667 13.0197 14.3547 13.1595 13.1302 12.81V15H15.1302C15.3955 15 15.6498 15.1054 15.8374 15.2929C16.0249 15.4804 16.1302 15.7348 16.1302 16C16.1302 16.2652 16.0249 16.5196 15.8374 16.7071C15.6498 16.8946 15.3955 17 15.1302 17H13.1302V21H18.1302C18.9259 21 19.689 20.6839 20.2516 20.1213C20.8142 19.5587 21.1302 18.7956 21.1302 18V12.58C20.4414 12.8814 19.6934 13.0235 18.942 12.9958C18.1906 12.9681 17.4551 12.7713 16.7902 12.42Z" fill="white"/>
</svg>
