<svg width="25" height="24" viewBox="0 0 25 24" fill="none" xmlns="http://www.w3.org/2000/svg">
<path d="M19.3594 4H5.35938C4.56373 4 3.80066 4.31607 3.23805 4.87868C2.67545 5.44129 2.35938 6.20435 2.35938 7V15C2.35938 15.7956 2.67545 16.5587 3.23805 17.1213C3.80066 17.6839 4.56373 18 5.35938 18H8.35938V19C8.35938 19.3714 8.4628 19.7355 8.65807 20.0515C8.85334 20.3674 9.13274 20.6227 9.46495 20.7889C9.79716 20.955 10.1691 21.0253 10.539 20.9919C10.9089 20.9586 11.2622 20.8229 11.5594 20.6L15.0294 18H19.3594C20.155 18 20.9181 17.6839 21.4807 17.1213C22.0433 16.5587 22.3594 15.7956 22.3594 15V7C22.3594 6.20435 22.0433 5.44129 21.4807 4.87868C20.9181 4.31607 20.155 4 19.3594 4ZM12.3594 16.5C12.0279 16.5 11.7099 16.3683 11.4755 16.1339C11.2411 15.8995 11.1094 15.5815 11.1094 15.25C11.1094 14.9185 11.2411 14.6005 11.4755 14.3661C11.7099 14.1317 12.0279 14 12.3594 14C12.6909 14 13.0088 14.1317 13.2433 14.3661C13.4777 14.6005 13.6094 14.9185 13.6094 15.25C13.6094 15.5815 13.4777 15.8995 13.2433 16.1339C13.0088 16.3683 12.6909 16.5 12.3594 16.5ZM13.6794 11.88L13.3494 12.12C13.3143 12.3689 13.1867 12.5955 12.992 12.7546C12.7974 12.9137 12.5499 12.9936 12.299 12.9785C12.048 12.9634 11.812 12.8543 11.6379 12.6729C11.4638 12.4916 11.3643 12.2513 11.3594 12C11.3892 11.6315 11.5122 11.2766 11.7168 10.9687C11.9215 10.6609 12.2011 10.4101 12.5294 10.24C13.0894 9.84 13.3594 9.63 13.3594 9C13.3246 8.74703 13.2081 8.51237 13.0276 8.33181C12.847 8.15126 12.6123 8.03473 12.3594 8C12.1064 8.03473 11.8717 8.15126 11.6912 8.33181C11.5106 8.51237 11.3941 8.74703 11.3594 9C11.3594 9.26522 11.254 9.51957 11.0665 9.70711C10.8789 9.89464 10.6246 10 10.3594 10C10.0942 10 9.8398 9.89464 9.65227 9.70711C9.46473 9.51957 9.35938 9.26522 9.35938 9C9.39812 8.21687 9.72662 7.47612 10.2811 6.92168C10.8355 6.36725 11.5762 6.03874 12.3594 6C13.1425 6.03874 13.8833 6.36725 14.4377 6.92168C14.9921 7.47612 15.3206 8.21687 15.3594 9C15.3592 9.58577 15.2036 10.161 14.9085 10.667C14.6133 11.173 14.1892 11.5915 13.6794 11.88Z" fill="white"/>
</svg>
